<svg width="300" height="50" viewBox="0 0 300 50" fill="none" xmlns="http://www.w3.org/2000/svg">
<rect x="0.5" y="0.5" width="299" height="49" rx="14.5" fill="#B80E0F" stroke="black"/>
<path d="M42.1221 17.125L40.2251 17.4668L44.6343 32.3862L44.9419 33.7534H45.0444L45.335 32.4204L49.7612 17.4668L47.8813 17.125V14.1172H56.9731V17.125L54.8882 17.3984L47.5566 39H42.4297L35.0811 17.3984L33.0303 17.125V14.1172H42.1221V17.125ZM67.8525 39C67.7158 38.6924 67.5962 38.3791 67.4937 38.0601C67.3911 37.7297 67.3114 37.3993 67.2544 37.0688C66.6619 37.7524 65.9385 38.305 65.084 38.7266C64.2409 39.1481 63.2725 39.3589 62.1787 39.3589C60.3672 39.3589 58.9259 38.869 57.855 37.8892C56.7954 36.8979 56.2656 35.5535 56.2656 33.856C56.2656 32.1242 56.9606 30.7855 58.3506 29.8398C59.7406 28.8942 61.7799 28.4214 64.4688 28.4214H67.0151V26.6099C67.0151 25.7212 66.7588 25.0319 66.2461 24.542C65.7334 24.0521 64.9757 23.8071 63.9731 23.8071C63.4035 23.8071 62.8965 23.8755 62.4521 24.0122C62.0078 24.1375 61.6489 24.2913 61.3755 24.4736L61.0508 26.4561H57.291L57.3081 22.3545C58.2196 21.7393 59.262 21.2209 60.4355 20.7993C61.6204 20.3778 62.9079 20.167 64.2979 20.167C66.5879 20.167 68.445 20.731 69.8691 21.8589C71.3047 22.9754 72.0225 24.5705 72.0225 26.644V34.2832C72.0225 34.568 72.0225 34.8358 72.0225 35.0864C72.0339 35.3371 72.0566 35.5763 72.0908 35.8042L73.6118 36.0093V39H67.8525ZM63.5288 35.6675C64.2808 35.6675 64.9644 35.508 65.5796 35.189C66.1948 34.8586 66.6733 34.4484 67.0151 33.9585V31.1387H64.4688C63.4092 31.1387 62.606 31.3893 62.0591 31.8906C61.5122 32.3805 61.2388 32.973 61.2388 33.668C61.2388 34.2946 61.4382 34.7845 61.8369 35.1377C62.2471 35.4909 62.811 35.6675 63.5288 35.6675ZM72.9897 23.5166V20.5088H80.2871L80.4922 22.9526C81.0846 22.064 81.8252 21.3804 82.7139 20.9019C83.6139 20.4119 84.6507 20.167 85.8242 20.167C87.0091 20.167 88.0231 20.429 88.8662 20.9531C89.7093 21.4772 90.3473 22.269 90.7803 23.3286C91.3499 22.3374 92.0905 21.5627 93.002 21.0044C93.9134 20.4461 94.9844 20.167 96.2148 20.167C98.0378 20.167 99.4733 20.7993 100.521 22.064C101.581 23.3172 102.111 25.2313 102.111 27.8062V35.4966L104.521 36.0093V39H94.9673V36.0093L97.1206 35.4966V27.7891C97.1206 26.3877 96.8927 25.4136 96.437 24.8667C95.9813 24.3198 95.3034 24.0464 94.4033 24.0464C93.6969 24.0464 93.0817 24.2059 92.5576 24.5249C92.0449 24.8325 91.6348 25.2655 91.3271 25.8237C91.3271 26.0402 91.3328 26.2282 91.3442 26.3877C91.3556 26.5358 91.3613 26.6896 91.3613 26.8491V35.4966L93.3779 36.0093V39H84.3716V36.0093L86.3882 35.4966V27.7891C86.3882 26.4219 86.1603 25.4591 85.7046 24.9009C85.2489 24.3312 84.5653 24.0464 83.6538 24.0464C82.9816 24.0464 82.3892 24.1774 81.8765 24.4395C81.3752 24.6901 80.9593 25.049 80.6289 25.5161V35.4966L82.7822 36.0093V39H73.2461V36.0093L75.6558 35.4966V24.0293L72.9897 23.5166ZM104.223 29.5835C104.223 26.8263 104.992 24.5705 106.53 22.8159C108.08 21.05 110.216 20.167 112.939 20.167C115.673 20.167 117.81 21.0443 119.348 22.7988C120.897 24.5534 121.672 26.8149 121.672 29.5835V29.9424C121.672 32.7223 120.897 34.9896 119.348 36.7441C117.81 38.4873 115.685 39.3589 112.973 39.3589C110.227 39.3589 108.08 38.4873 106.53 36.7441C104.992 34.9896 104.223 32.7223 104.223 29.9424V29.5835ZM109.213 29.9424C109.213 31.6286 109.51 32.9844 110.102 34.0098C110.694 35.0238 111.652 35.5308 112.973 35.5308C114.261 35.5308 115.201 35.0181 115.793 33.9927C116.397 32.9673 116.699 31.6172 116.699 29.9424V29.5835C116.699 27.9429 116.397 26.6042 115.793 25.5674C115.189 24.5306 114.238 24.0122 112.939 24.0122C111.64 24.0122 110.694 24.5306 110.102 25.5674C109.51 26.6042 109.213 27.9429 109.213 29.5835V29.9424ZM137.183 26.8662H133.833L133.303 24.5591C132.961 24.2856 132.528 24.0578 132.004 23.8755C131.492 23.6932 130.922 23.6021 130.295 23.6021C129.418 23.6021 128.723 23.8014 128.21 24.2002C127.698 24.5876 127.441 25.0775 127.441 25.6699C127.441 26.2282 127.686 26.6953 128.176 27.0713C128.666 27.4359 129.646 27.7606 131.116 28.0454C133.406 28.5011 135.103 29.1733 136.208 30.062C137.314 30.9393 137.866 32.1527 137.866 33.7021C137.866 35.3656 137.148 36.7271 135.713 37.7866C134.289 38.8348 132.409 39.3589 130.073 39.3589C128.649 39.3589 127.339 39.1538 126.143 38.7437C124.958 38.3221 123.904 37.724 122.981 36.9492L122.93 32.7964H126.416L127.1 35.2061C127.396 35.4567 127.8 35.6447 128.313 35.77C128.826 35.884 129.361 35.9409 129.919 35.9409C130.933 35.9409 131.702 35.7586 132.227 35.394C132.762 35.0295 133.03 34.5339 133.03 33.9072C133.03 33.3604 132.762 32.8875 132.227 32.4888C131.691 32.09 130.706 31.7368 129.27 31.4292C127.094 30.9849 125.448 30.3298 124.331 29.4639C123.226 28.5866 122.673 27.396 122.673 25.8921C122.673 24.3426 123.311 23.0096 124.587 21.8931C125.863 20.7651 127.681 20.2012 130.039 20.2012C131.475 20.2012 132.83 20.3949 134.106 20.7822C135.394 21.1696 136.402 21.6652 137.131 22.269L137.183 26.8662ZM156.959 39C156.822 38.6924 156.703 38.3791 156.6 38.0601C156.498 37.7297 156.418 37.3993 156.361 37.0688C155.768 37.7524 155.045 38.305 154.19 38.7266C153.347 39.1481 152.379 39.3589 151.285 39.3589C149.474 39.3589 148.032 38.869 146.961 37.8892C145.902 36.8979 145.372 35.5535 145.372 33.856C145.372 32.1242 146.067 30.7855 147.457 29.8398C148.847 28.8942 150.886 28.4214 153.575 28.4214H156.122V26.6099C156.122 25.7212 155.865 25.0319 155.353 24.542C154.84 24.0521 154.082 23.8071 153.08 23.8071C152.51 23.8071 152.003 23.8755 151.559 24.0122C151.114 24.1375 150.755 24.2913 150.482 24.4736L150.157 26.4561H146.397L146.415 22.3545C147.326 21.7393 148.368 21.2209 149.542 20.7993C150.727 20.3778 152.014 20.167 153.404 20.167C155.694 20.167 157.551 20.731 158.976 21.8589C160.411 22.9754 161.129 24.5705 161.129 26.644V34.2832C161.129 34.568 161.129 34.8358 161.129 35.0864C161.14 35.3371 161.163 35.5763 161.197 35.8042L162.718 36.0093V39H156.959ZM152.635 35.6675C153.387 35.6675 154.071 35.508 154.686 35.189C155.301 34.8586 155.78 34.4484 156.122 33.9585V31.1387H153.575C152.516 31.1387 151.712 31.3893 151.166 31.8906C150.619 32.3805 150.345 32.973 150.345 33.668C150.345 34.2946 150.545 34.7845 150.943 35.1377C151.354 35.4909 151.917 35.6675 152.635 35.6675ZM162.677 29.5835C162.677 26.8263 163.446 24.5705 164.984 22.8159C166.534 21.05 168.67 20.167 171.393 20.167C174.127 20.167 176.264 21.0443 177.802 22.7988C179.351 24.5534 180.126 26.8149 180.126 29.5835V29.9424C180.126 32.7223 179.351 34.9896 177.802 36.7441C176.264 38.4873 174.139 39.3589 171.427 39.3589C168.681 39.3589 166.534 38.4873 164.984 36.7441C163.446 34.9896 162.677 32.7223 162.677 29.9424V29.5835ZM167.667 29.9424C167.667 31.6286 167.964 32.9844 168.556 34.0098C169.149 35.0238 170.106 35.5308 171.427 35.5308C172.715 35.5308 173.655 35.0181 174.247 33.9927C174.851 32.9673 175.153 31.6172 175.153 29.9424V29.5835C175.153 27.9429 174.851 26.6042 174.247 25.5674C173.643 24.5306 172.692 24.0122 171.393 24.0122C170.094 24.0122 169.149 24.5306 168.556 25.5674C167.964 26.6042 167.667 27.9429 167.667 29.5835V29.9424ZM207.644 22.5083H203.936L203.423 19.1929C202.933 18.703 202.312 18.3156 201.56 18.0308C200.819 17.7459 199.942 17.6035 198.928 17.6035C196.764 17.6035 195.094 18.3896 193.921 19.9619C192.759 21.5342 192.178 23.585 192.178 26.1143V26.9858C192.178 29.5151 192.759 31.5716 193.921 33.1553C195.083 34.7389 196.724 35.5308 198.843 35.5308C199.823 35.5308 200.717 35.3883 201.526 35.1035C202.346 34.8187 202.979 34.4313 203.423 33.9414L203.936 30.626H207.644V35.5479C206.641 36.71 205.36 37.6385 203.799 38.3335C202.249 39.0171 200.512 39.3589 198.586 39.3589C195.248 39.3589 192.514 38.2025 190.383 35.8896C188.253 33.5768 187.188 30.6089 187.188 26.9858V26.1484C187.188 22.5368 188.247 19.5688 190.366 17.2446C192.485 14.9204 195.225 13.7583 198.586 13.7583C200.512 13.7583 202.249 14.1115 203.799 14.8179C205.348 15.5129 206.63 16.4357 207.644 17.5864V22.5083ZM220.096 39C219.959 38.6924 219.839 38.3791 219.737 38.0601C219.634 37.7297 219.555 37.3993 219.498 37.0688C218.905 37.7524 218.182 38.305 217.327 38.7266C216.484 39.1481 215.516 39.3589 214.422 39.3589C212.61 39.3589 211.169 38.869 210.098 37.8892C209.039 36.8979 208.509 35.5535 208.509 33.856C208.509 32.1242 209.204 30.7855 210.594 29.8398C211.984 28.8942 214.023 28.4214 216.712 28.4214H219.258V26.6099C219.258 25.7212 219.002 25.0319 218.489 24.542C217.977 24.0521 217.219 23.8071 216.216 23.8071C215.647 23.8071 215.14 23.8755 214.695 24.0122C214.251 24.1375 213.892 24.2913 213.619 24.4736L213.294 26.4561H209.534L209.551 22.3545C210.463 21.7393 211.505 21.2209 212.679 20.7993C213.864 20.3778 215.151 20.167 216.541 20.167C218.831 20.167 220.688 20.731 222.112 21.8589C223.548 22.9754 224.266 24.5705 224.266 26.644V34.2832C224.266 34.568 224.266 34.8358 224.266 35.0864C224.277 35.3371 224.3 35.5763 224.334 35.8042L225.855 36.0093V39H220.096ZM215.772 35.6675C216.524 35.6675 217.208 35.508 217.823 35.189C218.438 34.8586 218.917 34.4484 219.258 33.9585V31.1387H216.712C215.652 31.1387 214.849 31.3893 214.302 31.8906C213.755 32.3805 213.482 32.973 213.482 33.668C213.482 34.2946 213.681 34.7845 214.08 35.1377C214.49 35.4909 215.054 35.6675 215.772 35.6675ZM240.904 26.8662H237.555L237.025 24.5591C236.683 24.2856 236.25 24.0578 235.726 23.8755C235.213 23.6932 234.644 23.6021 234.017 23.6021C233.14 23.6021 232.445 23.8014 231.932 24.2002C231.419 24.5876 231.163 25.0775 231.163 25.6699C231.163 26.2282 231.408 26.6953 231.898 27.0713C232.388 27.4359 233.368 27.7606 234.837 28.0454C237.127 28.5011 238.825 29.1733 239.93 30.062C241.035 30.9393 241.588 32.1527 241.588 33.7021C241.588 35.3656 240.87 36.7271 239.435 37.7866C238.01 38.8348 236.131 39.3589 233.795 39.3589C232.371 39.3589 231.061 39.1538 229.864 38.7437C228.679 38.3221 227.625 37.724 226.703 36.9492L226.651 32.7964H230.138L230.821 35.2061C231.118 35.4567 231.522 35.6447 232.035 35.77C232.547 35.884 233.083 35.9409 233.641 35.9409C234.655 35.9409 235.424 35.7586 235.948 35.394C236.484 35.0295 236.751 34.5339 236.751 33.9072C236.751 33.3604 236.484 32.8875 235.948 32.4888C235.413 32.09 234.427 31.7368 232.992 31.4292C230.816 30.9849 229.169 30.3298 228.053 29.4639C226.948 28.5866 226.395 27.396 226.395 25.8921C226.395 24.3426 227.033 23.0096 228.309 21.8931C229.585 20.7651 231.402 20.2012 233.761 20.2012C235.196 20.2012 236.552 20.3949 237.828 20.7822C239.116 21.1696 240.124 21.6652 240.853 22.269L240.904 26.8662ZM242.077 29.5835C242.077 26.8263 242.846 24.5705 244.384 22.8159C245.933 21.05 248.069 20.167 250.792 20.167C253.527 20.167 255.663 21.0443 257.201 22.7988C258.751 24.5534 259.525 26.8149 259.525 29.5835V29.9424C259.525 32.7223 258.751 34.9896 257.201 36.7441C255.663 38.4873 253.538 39.3589 250.827 39.3589C248.081 39.3589 245.933 38.4873 244.384 36.7441C242.846 34.9896 242.077 32.7223 242.077 29.9424V29.5835ZM247.067 29.9424C247.067 31.6286 247.363 32.9844 247.956 34.0098C248.548 35.0238 249.505 35.5308 250.827 35.5308C252.114 35.5308 253.054 35.0181 253.646 33.9927C254.25 32.9673 254.552 31.6172 254.552 29.9424V29.5835C254.552 27.9429 254.25 26.6042 253.646 25.5674C253.043 24.5306 252.091 24.0122 250.792 24.0122C249.494 24.0122 248.548 24.5306 247.956 25.5674C247.363 26.6042 247.067 27.9429 247.067 29.5835V29.9424ZM265.893 30.4209H260.903V14.1172H265.893V30.4209ZM265.893 39H260.903V34.625H265.893V39Z" fill="white"/>
</svg>
