<svg width="250" height="50" viewBox="0 0 250 50" fill="none" xmlns="http://www.w3.org/2000/svg">
<rect x="0.5" y="0.5" width="249" height="49" rx="14.5" fill="#B80E0F" stroke="black"/>
<path d="M73.146 22.5083H69.4375L68.9248 19.1929C68.4349 18.703 67.814 18.3156 67.062 18.0308C66.3215 17.7459 65.4442 17.6035 64.4302 17.6035C62.2655 17.6035 60.5964 18.3896 59.4229 19.9619C58.2607 21.5342 57.6797 23.585 57.6797 26.1143V26.9858C57.6797 29.5151 58.2607 31.5716 59.4229 33.1553C60.585 34.7389 62.2256 35.5308 64.3447 35.5308C65.3245 35.5308 66.2189 35.3883 67.0278 35.1035C67.8481 34.8187 68.4805 34.4313 68.9248 33.9414L69.4375 30.626H73.146V35.5479C72.1434 36.71 70.8617 37.6385 69.3008 38.3335C67.7513 39.0171 66.0138 39.3589 64.0884 39.3589C60.7502 39.3589 58.0158 38.2025 55.8853 35.8896C53.7547 33.5768 52.6895 30.6089 52.6895 26.9858V26.1484C52.6895 22.5368 53.749 19.5688 55.8682 17.2446C57.9873 14.9204 60.7274 13.7583 64.0884 13.7583C66.0138 13.7583 67.7513 14.1115 69.3008 14.8179C70.8503 15.5129 72.132 16.4357 73.146 17.5864V22.5083ZM74.1987 36.0093L76.5913 35.4966V24.0293L73.9424 23.5166V20.5088H81.2397L81.4619 23.209C81.8949 22.252 82.4531 21.5057 83.1367 20.9702C83.8203 20.4347 84.6121 20.167 85.5122 20.167C85.7743 20.167 86.0477 20.1898 86.3325 20.2354C86.6287 20.2695 86.8737 20.3151 87.0674 20.3721L86.5376 24.918L84.4868 24.8667C83.7576 24.8667 83.1538 25.0091 82.6753 25.2939C82.1968 25.5788 81.8322 25.9832 81.5815 26.5073V35.4966L83.9741 36.0093V39H74.1987V36.0093ZM86.6504 36.0093L89.0601 35.4966V24.0293L86.394 23.5166V20.5088H94.0503V35.4966L96.4429 36.0093V39H86.6504V36.0093ZM94.0503 16.0825H89.0601V12.3398H94.0503V16.0825ZM108.108 39C107.972 38.6924 107.852 38.3791 107.75 38.0601C107.647 37.7297 107.567 37.3993 107.51 37.0688C106.918 37.7524 106.194 38.305 105.34 38.7266C104.497 39.1481 103.528 39.3589 102.435 39.3589C100.623 39.3589 99.1818 38.869 98.1108 37.8892C97.0513 36.8979 96.5215 35.5535 96.5215 33.856C96.5215 32.1242 97.2165 30.7855 98.6064 29.8398C99.9964 28.8942 102.036 28.4214 104.725 28.4214H107.271V26.6099C107.271 25.7212 107.015 25.0319 106.502 24.542C105.989 24.0521 105.232 23.8071 104.229 23.8071C103.659 23.8071 103.152 23.8755 102.708 24.0122C102.264 24.1375 101.905 24.2913 101.631 24.4736L101.307 26.4561H97.5469L97.564 22.3545C98.4754 21.7393 99.5179 21.2209 100.691 20.7993C101.876 20.3778 103.164 20.167 104.554 20.167C106.844 20.167 108.701 20.731 110.125 21.8589C111.561 22.9754 112.278 24.5705 112.278 26.644V34.2832C112.278 34.568 112.278 34.8358 112.278 35.0864C112.29 35.3371 112.312 35.5763 112.347 35.8042L113.868 36.0093V39H108.108ZM103.785 35.6675C104.537 35.6675 105.22 35.508 105.835 35.189C106.451 34.8586 106.929 34.4484 107.271 33.9585V31.1387H104.725C103.665 31.1387 102.862 31.3893 102.315 31.8906C101.768 32.3805 101.495 32.973 101.495 33.668C101.495 34.2946 101.694 34.7845 102.093 35.1377C102.503 35.4909 103.067 35.6675 103.785 35.6675ZM114.203 36.0093L116.595 35.4966V24.0293L113.946 23.5166V20.5088H121.244L121.466 23.209C121.899 22.252 122.457 21.5057 123.141 20.9702C123.824 20.4347 124.616 20.167 125.516 20.167C125.778 20.167 126.052 20.1898 126.336 20.2354C126.633 20.2695 126.878 20.3151 127.071 20.3721L126.542 24.918L124.491 24.8667C123.762 24.8667 123.158 25.0091 122.679 25.2939C122.201 25.5788 121.836 25.9832 121.585 26.5073V35.4966L123.978 36.0093V39H114.203V36.0093ZM152.419 22.064H148.676L148.027 18.646C147.594 18.3726 146.962 18.1333 146.13 17.9282C145.298 17.7231 144.415 17.6206 143.481 17.6206C142.114 17.6206 141.054 17.9111 140.302 18.4922C139.562 19.0618 139.191 19.8024 139.191 20.7139C139.191 21.557 139.579 22.252 140.354 22.7988C141.14 23.3343 142.49 23.904 144.404 24.5078C147.15 25.2712 149.229 26.2795 150.642 27.5327C152.066 28.786 152.778 30.4323 152.778 32.4717C152.778 34.6022 151.935 36.2827 150.249 37.5132C148.562 38.7437 146.341 39.3589 143.583 39.3589C141.612 39.3589 139.829 39.0456 138.234 38.4189C136.651 37.7923 135.329 36.9264 134.27 35.8213V30.626H138.132L138.662 34.1636C139.163 34.5737 139.841 34.9155 140.695 35.189C141.561 35.451 142.524 35.582 143.583 35.582C144.951 35.582 145.987 35.3029 146.694 34.7446C147.412 34.1864 147.771 33.4401 147.771 32.5059C147.771 31.5488 147.429 30.7798 146.745 30.1987C146.073 29.6177 144.888 29.0708 143.19 28.5581C140.24 27.7036 138.007 26.6896 136.491 25.5161C134.976 24.3426 134.218 22.7362 134.218 20.6968C134.218 18.6802 135.073 17.0339 136.782 15.7578C138.491 14.4704 140.638 13.8096 143.225 13.7754C145.139 13.7754 146.882 14.0659 148.454 14.647C150.026 15.228 151.348 16.0028 152.419 16.9712V22.064ZM164.888 39C164.751 38.6924 164.631 38.3791 164.529 38.0601C164.426 37.7297 164.347 37.3993 164.29 37.0688C163.697 37.7524 162.974 38.305 162.119 38.7266C161.276 39.1481 160.308 39.3589 159.214 39.3589C157.402 39.3589 155.961 38.869 154.89 37.8892C153.831 36.8979 153.301 35.5535 153.301 33.856C153.301 32.1242 153.996 30.7855 155.386 29.8398C156.776 28.8942 158.815 28.4214 161.504 28.4214H164.05V26.6099C164.05 25.7212 163.794 25.0319 163.281 24.542C162.769 24.0521 162.011 23.8071 161.008 23.8071C160.439 23.8071 159.932 23.8755 159.487 24.0122C159.043 24.1375 158.684 24.2913 158.411 24.4736L158.086 26.4561H154.326L154.343 22.3545C155.255 21.7393 156.297 21.2209 157.471 20.7993C158.656 20.3778 159.943 20.167 161.333 20.167C163.623 20.167 165.48 20.731 166.904 21.8589C168.34 22.9754 169.058 24.5705 169.058 26.644V34.2832C169.058 34.568 169.058 34.8358 169.058 35.0864C169.069 35.3371 169.092 35.5763 169.126 35.8042L170.647 36.0093V39H164.888ZM160.564 35.6675C161.316 35.6675 162 35.508 162.615 35.189C163.23 34.8586 163.708 34.4484 164.05 33.9585V31.1387H161.504C160.444 31.1387 159.641 31.3893 159.094 31.8906C158.547 32.3805 158.274 32.973 158.274 33.668C158.274 34.2946 158.473 34.7845 158.872 35.1377C159.282 35.4909 159.846 35.6675 160.564 35.6675ZM170.076 15.3477V12.3398H177.732V35.4966L180.142 36.0093V39H170.333V36.0093L172.742 35.4966V15.8604L170.076 15.3477ZM191.808 39C191.671 38.6924 191.551 38.3791 191.449 38.0601C191.346 37.7297 191.266 37.3993 191.209 37.0688C190.617 37.7524 189.894 38.305 189.039 38.7266C188.196 39.1481 187.228 39.3589 186.134 39.3589C184.322 39.3589 182.881 38.869 181.81 37.8892C180.75 36.8979 180.221 35.5535 180.221 33.856C180.221 32.1242 180.916 30.7855 182.306 29.8398C183.696 28.8942 185.735 28.4214 188.424 28.4214H190.97V26.6099C190.97 25.7212 190.714 25.0319 190.201 24.542C189.688 24.0521 188.931 23.8071 187.928 23.8071C187.359 23.8071 186.852 23.8755 186.407 24.0122C185.963 24.1375 185.604 24.2913 185.331 24.4736L185.006 26.4561H181.246L181.263 22.3545C182.175 21.7393 183.217 21.2209 184.391 20.7993C185.576 20.3778 186.863 20.167 188.253 20.167C190.543 20.167 192.4 20.731 193.824 21.8589C195.26 22.9754 195.978 24.5705 195.978 26.644V34.2832C195.978 34.568 195.978 34.8358 195.978 35.0864C195.989 35.3371 196.012 35.5763 196.046 35.8042L197.567 36.0093V39H191.808ZM187.484 35.6675C188.236 35.6675 188.919 35.508 189.535 35.189C190.15 34.8586 190.628 34.4484 190.97 33.9585V31.1387H188.424C187.364 31.1387 186.561 31.3893 186.014 31.8906C185.467 32.3805 185.194 32.973 185.194 33.668C185.194 34.2946 185.393 34.7845 185.792 35.1377C186.202 35.4909 186.766 35.6675 187.484 35.6675Z" fill="white"/>
</svg>
