<svg width="250" height="50" viewBox="0 0 250 50" fill="none" xmlns="http://www.w3.org/2000/svg">
<rect x="0.5" y="0.5" width="249" height="49" rx="14.5" fill="#B80E0F" stroke="black"/>
<path d="M54.2925 17.125V14.1172H64.5977V17.125L61.9316 17.6377V35.4966L64.5977 36.0093V39H54.2925V36.0093L56.9585 35.4966V17.6377L54.2925 17.125ZM64.6079 36.0093L67.0005 35.4966V24.0293L64.3516 23.5166V20.5088H71.6489L71.8711 23.1577C72.4863 22.2121 73.244 21.4772 74.144 20.9531C75.0441 20.429 76.0524 20.167 77.1689 20.167C79.0374 20.167 80.4958 20.7537 81.5439 21.9272C82.5921 23.1007 83.1162 24.9408 83.1162 27.4473V35.4966L85.5088 36.0093V39H75.9727V36.0093L78.1089 35.4966V27.4644C78.1089 26.2225 77.8582 25.3452 77.3569 24.8325C76.8556 24.3084 76.098 24.0464 75.084 24.0464C74.4232 24.0464 73.8307 24.1831 73.3066 24.4565C72.7826 24.7186 72.3439 25.0946 71.9907 25.5845V35.4966L74.0073 36.0093V39H64.6079V36.0093ZM85.4849 29.9082C85.4849 26.9915 86.1172 24.6388 87.3818 22.8501C88.6579 21.0614 90.4409 20.167 92.731 20.167C93.7677 20.167 94.6792 20.4006 95.4653 20.8677C96.2515 21.3234 96.9237 21.9785 97.4819 22.833L97.8408 20.5088H102.182V38.4531C102.182 40.8913 101.413 42.8338 99.8745 44.2808C98.3478 45.7391 96.2458 46.4683 93.5684 46.4683C92.6341 46.4683 91.6429 46.3372 90.5947 46.0752C89.5465 45.8245 88.5781 45.4771 87.6895 45.0327L88.6123 41.5293C89.4098 41.8711 90.2074 42.1388 91.0049 42.3325C91.8024 42.5376 92.6455 42.6401 93.5342 42.6401C94.7533 42.6401 95.6647 42.2699 96.2686 41.5293C96.8724 40.7887 97.1743 39.7576 97.1743 38.436V37.2227C96.6274 37.9176 95.9837 38.4474 95.2432 38.812C94.5026 39.1766 93.6538 39.3589 92.6968 39.3589C90.4295 39.3589 88.6579 38.5272 87.3818 36.8638C86.1172 35.189 85.4849 32.9901 85.4849 30.2671V29.9082ZM90.4751 30.2671C90.4751 31.8849 90.7485 33.161 91.2954 34.0952C91.8423 35.0181 92.731 35.4795 93.9614 35.4795C94.7248 35.4795 95.3685 35.3428 95.8926 35.0693C96.4281 34.7845 96.8553 34.3743 97.1743 33.8389V25.8066C96.8553 25.2484 96.4281 24.8154 95.8926 24.5078C95.3685 24.2002 94.7362 24.0464 93.9956 24.0464C92.7765 24.0464 91.8822 24.5876 91.3125 25.6699C90.7542 26.7523 90.4751 28.165 90.4751 29.9082V30.2671ZM103.798 36.0093L106.191 35.4966V24.0293L103.542 23.5166V20.5088H110.839L111.062 23.209C111.494 22.252 112.053 21.5057 112.736 20.9702C113.42 20.4347 114.212 20.167 115.112 20.167C115.374 20.167 115.647 20.1898 115.932 20.2354C116.228 20.2695 116.473 20.3151 116.667 20.3721L116.137 24.918L114.086 24.8667C113.357 24.8667 112.753 25.0091 112.275 25.2939C111.796 25.5788 111.432 25.9832 111.181 26.5073V35.4966L113.574 36.0093V39H103.798V36.0093ZM124.915 39.3589C122.249 39.3589 120.118 38.5044 118.523 36.7954C116.928 35.0864 116.13 32.916 116.13 30.2842V29.6006C116.13 26.8548 116.882 24.5933 118.386 22.8159C119.902 21.0386 121.93 20.1556 124.47 20.167C126.965 20.167 128.902 20.9189 130.281 22.4229C131.659 23.9268 132.349 25.9604 132.349 28.5239V31.2412H121.309L121.274 31.3438C121.366 32.5628 121.77 33.5654 122.488 34.3516C123.217 35.1377 124.202 35.5308 125.444 35.5308C126.549 35.5308 127.467 35.4225 128.196 35.2061C128.925 34.9782 129.722 34.625 130.588 34.1465L131.938 37.2227C131.175 37.8265 130.184 38.3335 128.965 38.7437C127.757 39.1538 126.407 39.3589 124.915 39.3589ZM124.47 24.0122C123.547 24.0122 122.818 24.3654 122.283 25.0718C121.747 25.7782 121.417 26.7067 121.292 27.8574L121.343 27.9429H127.461V27.4985C127.461 26.439 127.21 25.5959 126.709 24.9692C126.219 24.3312 125.473 24.0122 124.47 24.0122ZM148.064 26.8662H144.715L144.185 24.5591C143.843 24.2856 143.41 24.0578 142.886 23.8755C142.374 23.6932 141.804 23.6021 141.177 23.6021C140.3 23.6021 139.605 23.8014 139.092 24.2002C138.58 24.5876 138.323 25.0775 138.323 25.6699C138.323 26.2282 138.568 26.6953 139.058 27.0713C139.548 27.4359 140.528 27.7606 141.998 28.0454C144.288 28.5011 145.985 29.1733 147.09 30.062C148.195 30.9393 148.748 32.1527 148.748 33.7021C148.748 35.3656 148.03 36.7271 146.595 37.7866C145.171 38.8348 143.291 39.3589 140.955 39.3589C139.531 39.3589 138.221 39.1538 137.024 38.7437C135.84 38.3221 134.786 37.724 133.863 36.9492L133.812 32.7964H137.298L137.981 35.2061C138.278 35.4567 138.682 35.6447 139.195 35.77C139.708 35.884 140.243 35.9409 140.801 35.9409C141.815 35.9409 142.584 35.7586 143.108 35.394C143.644 35.0295 143.912 34.5339 143.912 33.9072C143.912 33.3604 143.644 32.8875 143.108 32.4888C142.573 32.09 141.587 31.7368 140.152 31.4292C137.976 30.9849 136.329 30.3298 135.213 29.4639C134.108 28.5866 133.555 27.396 133.555 25.8921C133.555 24.3426 134.193 23.0096 135.469 21.8931C136.745 20.7651 138.562 20.2012 140.921 20.2012C142.356 20.2012 143.712 20.3949 144.988 20.7822C146.276 21.1696 147.284 21.6652 148.013 22.269L148.064 26.8662ZM164.327 26.8662H160.978L160.448 24.5591C160.106 24.2856 159.673 24.0578 159.149 23.8755C158.636 23.6932 158.067 23.6021 157.44 23.6021C156.563 23.6021 155.868 23.8014 155.355 24.2002C154.842 24.5876 154.586 25.0775 154.586 25.6699C154.586 26.2282 154.831 26.6953 155.321 27.0713C155.811 27.4359 156.791 27.7606 158.26 28.0454C160.55 28.5011 162.248 29.1733 163.353 30.062C164.458 30.9393 165.011 32.1527 165.011 33.7021C165.011 35.3656 164.293 36.7271 162.857 37.7866C161.433 38.8348 159.553 39.3589 157.218 39.3589C155.794 39.3589 154.483 39.1538 153.287 38.7437C152.102 38.3221 151.048 37.724 150.125 36.9492L150.074 32.7964H153.561L154.244 35.2061C154.54 35.4567 154.945 35.6447 155.458 35.77C155.97 35.884 156.506 35.9409 157.064 35.9409C158.078 35.9409 158.847 35.7586 159.371 35.394C159.907 35.0295 160.174 34.5339 160.174 33.9072C160.174 33.3604 159.907 32.8875 159.371 32.4888C158.836 32.09 157.85 31.7368 156.415 31.4292C154.238 30.9849 152.592 30.3298 151.476 29.4639C150.37 28.5866 149.818 27.396 149.818 25.8921C149.818 24.3426 150.456 23.0096 151.732 21.8931C153.008 20.7651 154.825 20.2012 157.184 20.2012C158.619 20.2012 159.975 20.3949 161.251 20.7822C162.538 21.1696 163.547 21.6652 164.276 22.269L164.327 26.8662ZM177.274 39C177.138 38.6924 177.018 38.3791 176.916 38.0601C176.813 37.7297 176.733 37.3993 176.676 37.0688C176.084 37.7524 175.36 38.305 174.506 38.7266C173.663 39.1481 172.694 39.3589 171.601 39.3589C169.789 39.3589 168.348 38.869 167.277 37.8892C166.217 36.8979 165.688 35.5535 165.688 33.856C165.688 32.1242 166.382 30.7855 167.772 29.8398C169.162 28.8942 171.202 28.4214 173.891 28.4214H176.437V26.6099C176.437 25.7212 176.181 25.0319 175.668 24.542C175.155 24.0521 174.398 23.8071 173.395 23.8071C172.825 23.8071 172.318 23.8755 171.874 24.0122C171.43 24.1375 171.071 24.2913 170.797 24.4736L170.473 26.4561H166.713L166.73 22.3545C167.641 21.7393 168.684 21.2209 169.857 20.7993C171.042 20.3778 172.33 20.167 173.72 20.167C176.01 20.167 177.867 20.731 179.291 21.8589C180.727 22.9754 181.444 24.5705 181.444 26.644V34.2832C181.444 34.568 181.444 34.8358 181.444 35.0864C181.456 35.3371 181.479 35.5763 181.513 35.8042L183.034 36.0093V39H177.274ZM172.951 35.6675C173.703 35.6675 174.386 35.508 175.001 35.189C175.617 34.8586 176.095 34.4484 176.437 33.9585V31.1387H173.891C172.831 31.1387 172.028 31.3893 171.481 31.8906C170.934 32.3805 170.661 32.973 170.661 33.668C170.661 34.2946 170.86 34.7845 171.259 35.1377C171.669 35.4909 172.233 35.6675 172.951 35.6675ZM183.369 36.0093L185.761 35.4966V24.0293L183.112 23.5166V20.5088H190.41L190.632 23.209C191.065 22.252 191.623 21.5057 192.307 20.9702C192.99 20.4347 193.782 20.167 194.682 20.167C194.944 20.167 195.218 20.1898 195.502 20.2354C195.799 20.2695 196.044 20.3151 196.237 20.3721L195.708 24.918L193.657 24.8667C192.928 24.8667 192.324 25.0091 191.845 25.2939C191.367 25.5788 191.002 25.9832 190.751 26.5073V35.4966L193.144 36.0093V39H183.369V36.0093Z" fill="white"/>
</svg>
