<svg width="408" height="81" viewBox="0 0 408 81" fill="none" xmlns="http://www.w3.org/2000/svg">
<g filter="url(#filter0_d)">
<path d="M4.53711 9.5V7.78125H10.4258V9.5L8.90234 9.79297V19.998L10.4258 20.291V22H4.53711V20.291L6.06055 19.998V9.79297L4.53711 9.5ZM10.4316 20.291L11.7988 19.998V13.4453L10.2852 13.1523V11.4336H14.4551L14.582 12.9473C14.9336 12.4069 15.3665 11.987 15.8809 11.6875C16.3952 11.388 16.9714 11.2383 17.6094 11.2383C18.6771 11.2383 19.5104 11.5736 20.1094 12.2441C20.7083 12.9147 21.0078 13.9661 21.0078 15.3984V19.998L22.375 20.291V22H16.9258V20.291L18.1465 19.998V15.4082C18.1465 14.6986 18.0033 14.1973 17.7168 13.9043C17.4303 13.6048 16.9974 13.4551 16.418 13.4551C16.0404 13.4551 15.7018 13.5332 15.4023 13.6895C15.1029 13.8392 14.8522 14.054 14.6504 14.334V19.998L15.8027 20.291V22H10.4316V20.291ZM22.4395 20.291L23.8164 19.998V13.4355H22.2441V11.4336H23.8164V10.2617C23.8164 9.07682 24.1582 8.16536 24.8418 7.52734C25.5254 6.88281 26.4857 6.56055 27.7227 6.56055C27.9635 6.56055 28.2077 6.58008 28.4551 6.61914C28.709 6.65169 28.9857 6.70052 29.2852 6.76562L29.041 8.88477C28.8848 8.85872 28.7318 8.83594 28.582 8.81641C28.4388 8.79688 28.2695 8.78711 28.0742 8.78711C27.612 8.78711 27.2604 8.91406 27.0195 9.16797C26.7852 9.42188 26.668 9.78646 26.668 10.2617V11.4336H28.7676V13.4355H26.668V19.998L28.0449 20.291V22H22.4395V20.291ZM28.7246 16.6191C28.7246 15.0436 29.1641 13.7546 30.043 12.752C30.9284 11.7428 32.1491 11.2383 33.7051 11.2383C35.2676 11.2383 36.4883 11.7396 37.3672 12.7422C38.2526 13.7448 38.6953 15.0371 38.6953 16.6191V16.8242C38.6953 18.4128 38.2526 19.7083 37.3672 20.7109C36.4883 21.707 35.2741 22.2051 33.7246 22.2051C32.1556 22.2051 30.9284 21.707 30.043 20.7109C29.1641 19.7083 28.7246 18.4128 28.7246 16.8242V16.6191ZM31.5762 16.8242C31.5762 17.7878 31.7454 18.5625 32.084 19.1484C32.4225 19.7279 32.9694 20.0176 33.7246 20.0176C34.4603 20.0176 34.9974 19.7246 35.3359 19.1387C35.681 18.5527 35.8535 17.7812 35.8535 16.8242V16.6191C35.8535 15.6816 35.681 14.9167 35.3359 14.3242C34.9909 13.7318 34.4473 13.4355 33.7051 13.4355C32.9629 13.4355 32.4225 13.7318 32.084 14.3242C31.7454 14.9167 31.5762 15.6816 31.5762 16.6191V16.8242ZM39.1504 20.291L40.5176 19.998V13.4453L39.0039 13.1523V11.4336H43.1738L43.3008 12.9766C43.5482 12.4297 43.8672 12.0033 44.2578 11.6973C44.6484 11.3913 45.1009 11.2383 45.6152 11.2383C45.765 11.2383 45.9212 11.2513 46.084 11.2773C46.2533 11.2969 46.3932 11.3229 46.5039 11.3555L46.2012 13.9531L45.0293 13.9238C44.6126 13.9238 44.2676 14.0052 43.9941 14.168C43.7207 14.3307 43.5124 14.5618 43.3691 14.8613V19.998L44.7363 20.291V22H39.1504V20.291ZM46.0215 13.1523V11.4336H50.1914L50.3086 12.8301C50.6471 12.3223 51.0703 11.9316 51.5781 11.6582C52.0924 11.3783 52.6849 11.2383 53.3555 11.2383C54.0326 11.2383 54.612 11.388 55.0938 11.6875C55.5755 11.987 55.9401 12.4395 56.1875 13.0449C56.513 12.4785 56.9362 12.0358 57.457 11.7168C57.9779 11.3978 58.5898 11.2383 59.293 11.2383C60.3346 11.2383 61.1549 11.5996 61.7539 12.3223C62.3594 13.0384 62.6621 14.1322 62.6621 15.6035V19.998L64.0391 20.291V22H58.5801V20.291L59.8105 19.998V15.5938C59.8105 14.793 59.6803 14.2363 59.4199 13.9238C59.1595 13.6113 58.7721 13.4551 58.2578 13.4551C57.8542 13.4551 57.5026 13.5462 57.2031 13.7285C56.9102 13.9043 56.6758 14.1517 56.5 14.4707C56.5 14.5944 56.5033 14.7018 56.5098 14.793C56.5163 14.8776 56.5195 14.9655 56.5195 15.0566V19.998L57.6719 20.291V22H52.5254V20.291L53.6777 19.998V15.5938C53.6777 14.8125 53.5475 14.2624 53.2871 13.9434C53.0267 13.6178 52.6361 13.4551 52.1152 13.4551C51.7311 13.4551 51.3926 13.5299 51.0996 13.6797C50.8132 13.8229 50.5755 14.028 50.3867 14.2949V19.998L51.6172 20.291V22H46.168V20.291L47.5449 19.998V13.4453L46.0215 13.1523ZM68.9277 22.2051C67.4043 22.2051 66.1868 21.7168 65.2754 20.7402C64.3639 19.7637 63.9082 18.5234 63.9082 17.0195V16.6289C63.9082 15.0599 64.3379 13.7676 65.1973 12.752C66.0632 11.7363 67.222 11.2318 68.6738 11.2383C70.0996 11.2383 71.2064 11.668 71.9941 12.5273C72.7819 13.3867 73.1758 14.5488 73.1758 16.0137V17.5664H66.8672L66.8477 17.625C66.8997 18.3216 67.1309 18.8945 67.541 19.3438C67.9577 19.793 68.5208 20.0176 69.2305 20.0176C69.862 20.0176 70.3861 19.9557 70.8027 19.832C71.2194 19.7018 71.6751 19.5 72.1699 19.2266L72.9414 20.9844C72.5052 21.3294 71.9388 21.6191 71.2422 21.8535C70.5521 22.0879 69.7806 22.2051 68.9277 22.2051ZM68.6738 13.4355C68.1465 13.4355 67.7298 13.6374 67.4238 14.041C67.1178 14.4447 66.929 14.9753 66.8574 15.6328L66.8867 15.6816H70.3828V15.4277C70.3828 14.8223 70.2396 14.3405 69.9531 13.9824C69.6732 13.6178 69.2467 13.4355 68.6738 13.4355ZM77.4355 16.6191C77.4355 15.0436 77.875 13.7546 78.7539 12.752C79.6393 11.7428 80.86 11.2383 82.416 11.2383C83.9785 11.2383 85.1992 11.7396 86.0781 12.7422C86.9635 13.7448 87.4062 15.0371 87.4062 16.6191V16.8242C87.4062 18.4128 86.9635 19.7083 86.0781 20.7109C85.1992 21.707 83.985 22.2051 82.4355 22.2051C80.8665 22.2051 79.6393 21.707 78.7539 20.7109C77.875 19.7083 77.4355 18.4128 77.4355 16.8242V16.6191ZM80.2871 16.8242C80.2871 17.7878 80.4564 18.5625 80.7949 19.1484C81.1335 19.7279 81.6803 20.0176 82.4355 20.0176C83.1712 20.0176 83.7083 19.7246 84.0469 19.1387C84.3919 18.5527 84.5645 17.7812 84.5645 16.8242V16.6191C84.5645 15.6816 84.3919 14.9167 84.0469 14.3242C83.7018 13.7318 83.1582 13.4355 82.416 13.4355C81.6738 13.4355 81.1335 13.7318 80.7949 14.3242C80.4564 14.9167 80.2871 15.6816 80.2871 16.6191V16.8242ZM91.4707 9.5V7.78125H97.3594V9.5L95.8359 9.79297V19.998L97.3594 20.291V22H91.4707V20.291L92.9941 19.998V9.79297L91.4707 9.5ZM103.85 7.78125C105.588 7.78125 107.02 8.33789 108.146 9.45117C109.273 10.5579 109.836 11.9805 109.836 13.7188V16.0723C109.836 17.8171 109.273 19.2428 108.146 20.3496C107.02 21.4499 105.588 22 103.85 22H97.4531V20.291L98.9668 19.998V9.79297L97.4531 9.5V7.78125H98.9668H103.85ZM101.818 9.97852V19.8125H103.703C104.725 19.8125 105.526 19.4674 106.105 18.7773C106.685 18.0872 106.975 17.1855 106.975 16.0723V13.6992C106.975 12.599 106.685 11.7038 106.105 11.0137C105.526 10.3236 104.725 9.97852 103.703 9.97852H101.818ZM121.088 20.7109C120.756 21.1992 120.362 21.5703 119.906 21.8242C119.457 22.0781 118.943 22.2051 118.363 22.2051C117.061 22.2051 116.049 21.7298 115.326 20.7793C114.61 19.8288 114.252 18.5723 114.252 17.0098V16.8047C114.252 15.138 114.613 13.7936 115.336 12.7715C116.059 11.7493 117.074 11.2383 118.383 11.2383C118.91 11.2383 119.385 11.3555 119.809 11.5898C120.232 11.8177 120.603 12.1432 120.922 12.5664V8.77734L119.398 8.48438V6.76562H120.922H123.773V19.998L125.141 20.291V22H121.303L121.088 20.7109ZM117.104 17.0098C117.104 17.9342 117.257 18.6634 117.562 19.1973C117.875 19.7246 118.383 19.9883 119.086 19.9883C119.503 19.9883 119.864 19.9036 120.17 19.7344C120.476 19.5651 120.727 19.321 120.922 19.002V14.5195C120.727 14.181 120.476 13.9206 120.17 13.7383C119.87 13.5495 119.516 13.4551 119.105 13.4551C118.409 13.4551 117.901 13.7643 117.582 14.3828C117.263 15.0013 117.104 15.8086 117.104 16.8047V17.0098ZM131.777 22C131.699 21.8242 131.631 21.6452 131.572 21.4629C131.514 21.2741 131.468 21.0853 131.436 20.8965C131.097 21.2871 130.684 21.6029 130.195 21.8438C129.714 22.0846 129.16 22.2051 128.535 22.2051C127.5 22.2051 126.676 21.9251 126.064 21.3652C125.459 20.7988 125.156 20.0306 125.156 19.0605C125.156 18.071 125.553 17.306 126.348 16.7656C127.142 16.2253 128.307 15.9551 129.844 15.9551H131.299V14.9199C131.299 14.4121 131.152 14.0182 130.859 13.7383C130.566 13.4583 130.133 13.3184 129.561 13.3184C129.235 13.3184 128.945 13.3574 128.691 13.4355C128.438 13.5072 128.232 13.5951 128.076 13.6992L127.891 14.832H125.742L125.752 12.4883C126.273 12.1367 126.868 11.8405 127.539 11.5996C128.216 11.3587 128.952 11.2383 129.746 11.2383C131.055 11.2383 132.116 11.5605 132.93 12.2051C133.75 12.8431 134.16 13.7546 134.16 14.9395V19.3047C134.16 19.4674 134.16 19.6204 134.16 19.7637C134.167 19.9069 134.18 20.0436 134.199 20.1738L135.068 20.291V22H131.777ZM129.307 20.0957C129.736 20.0957 130.127 20.0046 130.479 19.8223C130.83 19.6335 131.104 19.3991 131.299 19.1191V17.5078H129.844C129.238 17.5078 128.779 17.651 128.467 17.9375C128.154 18.2174 127.998 18.556 127.998 18.9531C127.998 19.3112 128.112 19.5911 128.34 19.793C128.574 19.9948 128.896 20.0957 129.307 20.0957ZM147.57 15.0664H145.656L145.354 13.748C145.158 13.5918 144.911 13.4616 144.611 13.3574C144.318 13.2533 143.993 13.2012 143.635 13.2012C143.133 13.2012 142.736 13.3151 142.443 13.543C142.15 13.7643 142.004 14.0443 142.004 14.3828C142.004 14.7018 142.144 14.9688 142.424 15.1836C142.704 15.3919 143.264 15.5775 144.104 15.7402C145.412 16.0007 146.382 16.3848 147.014 16.8926C147.645 17.3939 147.961 18.0872 147.961 18.9727C147.961 19.9232 147.551 20.7012 146.73 21.3066C145.917 21.9056 144.842 22.2051 143.508 22.2051C142.694 22.2051 141.945 22.0879 141.262 21.8535C140.585 21.6126 139.982 21.2708 139.455 20.8281L139.426 18.4551H141.418L141.809 19.832C141.978 19.9753 142.209 20.0827 142.502 20.1543C142.795 20.2194 143.101 20.252 143.42 20.252C143.999 20.252 144.439 20.1478 144.738 19.9395C145.044 19.7311 145.197 19.4479 145.197 19.0898C145.197 18.7773 145.044 18.5072 144.738 18.2793C144.432 18.0514 143.869 17.8496 143.049 17.6738C141.805 17.4199 140.865 17.0456 140.227 16.5508C139.595 16.0495 139.279 15.3691 139.279 14.5098C139.279 13.6243 139.644 12.8626 140.373 12.2246C141.102 11.5801 142.141 11.2578 143.488 11.2578C144.309 11.2578 145.083 11.3685 145.812 11.5898C146.548 11.8112 147.124 12.0944 147.541 12.4395L147.57 15.0664ZM154.969 22C154.891 21.8242 154.822 21.6452 154.764 21.4629C154.705 21.2741 154.66 21.0853 154.627 20.8965C154.288 21.2871 153.875 21.6029 153.387 21.8438C152.905 22.0846 152.352 22.2051 151.727 22.2051C150.691 22.2051 149.868 21.9251 149.256 21.3652C148.65 20.7988 148.348 20.0306 148.348 19.0605C148.348 18.071 148.745 17.306 149.539 16.7656C150.333 16.2253 151.499 15.9551 153.035 15.9551H154.49V14.9199C154.49 14.4121 154.344 14.0182 154.051 13.7383C153.758 13.4583 153.325 13.3184 152.752 13.3184C152.426 13.3184 152.137 13.3574 151.883 13.4355C151.629 13.5072 151.424 13.5951 151.268 13.6992L151.082 14.832H148.934L148.943 12.4883C149.464 12.1367 150.06 11.8405 150.73 11.5996C151.408 11.3587 152.143 11.2383 152.938 11.2383C154.246 11.2383 155.307 11.5605 156.121 12.2051C156.941 12.8431 157.352 13.7546 157.352 14.9395V19.3047C157.352 19.4674 157.352 19.6204 157.352 19.7637C157.358 19.9069 157.371 20.0436 157.391 20.1738L158.26 20.291V22H154.969ZM152.498 20.0957C152.928 20.0957 153.318 20.0046 153.67 19.8223C154.021 19.6335 154.295 19.3991 154.49 19.1191V17.5078H153.035C152.43 17.5078 151.971 17.651 151.658 17.9375C151.346 18.2174 151.189 18.556 151.189 18.9531C151.189 19.3112 151.303 19.5911 151.531 19.793C151.766 19.9948 152.088 20.0957 152.498 20.0957ZM157.934 8.48438V6.76562H162.309V19.998L163.686 20.291V22H158.08V20.291L159.457 19.998V8.77734L157.934 8.48438ZM170.352 22C170.273 21.8242 170.205 21.6452 170.146 21.4629C170.088 21.2741 170.042 21.0853 170.01 20.8965C169.671 21.2871 169.258 21.6029 168.77 21.8438C168.288 22.0846 167.734 22.2051 167.109 22.2051C166.074 22.2051 165.251 21.9251 164.639 21.3652C164.033 20.7988 163.73 20.0306 163.73 19.0605C163.73 18.071 164.128 17.306 164.922 16.7656C165.716 16.2253 166.882 15.9551 168.418 15.9551H169.873V14.9199C169.873 14.4121 169.727 14.0182 169.434 13.7383C169.141 13.4583 168.708 13.3184 168.135 13.3184C167.809 13.3184 167.52 13.3574 167.266 13.4355C167.012 13.5072 166.807 13.5951 166.65 13.6992L166.465 14.832H164.316L164.326 12.4883C164.847 12.1367 165.443 11.8405 166.113 11.5996C166.79 11.3587 167.526 11.2383 168.32 11.2383C169.629 11.2383 170.69 11.5605 171.504 12.2051C172.324 12.8431 172.734 13.7546 172.734 14.9395V19.3047C172.734 19.4674 172.734 19.6204 172.734 19.7637C172.741 19.9069 172.754 20.0436 172.773 20.1738L173.643 20.291V22H170.352ZM167.881 20.0957C168.311 20.0957 168.701 20.0046 169.053 19.8223C169.404 19.6335 169.678 19.3991 169.873 19.1191V17.5078H168.418C167.812 17.5078 167.354 17.651 167.041 17.9375C166.729 18.2174 166.572 18.556 166.572 18.9531C166.572 19.3112 166.686 19.5911 166.914 19.793C167.148 19.9948 167.471 20.0957 167.881 20.0957ZM176.734 22H173.893V19.5H176.734V22ZM176.734 13.9434H173.893V11.4434H176.734V13.9434Z" fill="black"/>
<rect x="4.5" y="33.5" width="399" height="39" fill="#F9F9F9" stroke="black"/>
<path d="M26.9434 46.5812C28.6816 46.5812 30.1139 47.1379 31.2402 48.2512C32.3665 49.3579 32.9297 50.7805 32.9297 52.5187V54.8723C32.9297 56.617 32.3665 58.0428 31.2402 59.1496C30.1139 60.2499 28.6816 60.8 26.9434 60.8H20.5469V59.091L22.0605 58.798V48.593L20.5469 48.3V46.5812H22.0605H26.9434ZM24.9121 48.7785V58.6125H26.7969C27.819 58.6125 28.6198 58.2674 29.1992 57.5773C29.7786 56.8872 30.0684 55.9855 30.0684 54.8723V52.4992C30.0684 51.3989 29.7786 50.5038 29.1992 49.8137C28.6198 49.1236 27.819 48.7785 26.7969 48.7785H24.9121ZM33.3164 59.091L34.6934 58.798V52.2453L33.1699 51.9523V50.2336H37.5449V58.798L38.9121 59.091V60.8H33.3164V59.091ZM37.5449 47.7043H34.6934V45.5656H37.5449V47.7043ZM39.0254 55.6047C39.0254 53.938 39.3867 52.5936 40.1094 51.5715C40.8385 50.5493 41.8574 50.0383 43.166 50.0383C43.7585 50.0383 44.2793 50.1717 44.7285 50.4387C45.1777 50.6991 45.5618 51.0734 45.8809 51.5617L46.0859 50.2336H48.5664V60.4875C48.5664 61.8807 48.127 62.9907 47.248 63.8176C46.3757 64.6509 45.1745 65.0676 43.6445 65.0676C43.1107 65.0676 42.5443 64.9927 41.9453 64.843C41.3464 64.6997 40.793 64.5012 40.2852 64.2473L40.8125 62.2453C41.2682 62.4406 41.724 62.5936 42.1797 62.7043C42.6354 62.8215 43.1172 62.8801 43.625 62.8801C44.3216 62.8801 44.8424 62.6685 45.1875 62.2453C45.5326 61.8221 45.7051 61.2329 45.7051 60.4777V59.7844C45.3926 60.1815 45.0247 60.4842 44.6016 60.6926C44.1784 60.9009 43.6934 61.0051 43.1465 61.0051C41.8509 61.0051 40.8385 60.5298 40.1094 59.5793C39.3867 58.6223 39.0254 57.3657 39.0254 55.8098V55.6047ZM41.877 55.8098C41.877 56.7342 42.0332 57.4634 42.3457 57.9973C42.6582 58.5246 43.166 58.7883 43.8691 58.7883C44.3053 58.7883 44.6732 58.7101 44.9727 58.5539C45.2786 58.3911 45.5228 58.1568 45.7051 57.8508V53.2609C45.5228 52.9419 45.2786 52.6945 44.9727 52.5187C44.6732 52.343 44.3118 52.2551 43.8887 52.2551C43.1921 52.2551 42.681 52.5643 42.3555 53.1828C42.0365 53.8013 41.877 54.6086 41.877 55.6047V55.8098ZM49.1875 59.091L50.5645 58.798V52.2453L49.041 51.9523V50.2336H53.416V58.798L54.7832 59.091V60.8H49.1875V59.091ZM53.416 47.7043H50.5645V45.5656H53.416V47.7043ZM58.9297 47.6457V50.2336H60.7852V52.2355H58.9297V57.6164C58.9297 58.0266 59.0143 58.3195 59.1836 58.4953C59.3529 58.6711 59.5807 58.759 59.8672 58.759C60.0625 58.759 60.2318 58.7525 60.375 58.7394C60.5247 58.7199 60.6908 58.6906 60.873 58.6516L61.1172 60.7121C60.7982 60.8098 60.4824 60.8814 60.1699 60.9269C59.8574 60.979 59.5189 61.0051 59.1543 61.0051C58.1712 61.0051 57.4128 60.7349 56.8789 60.1945C56.3516 59.6542 56.0879 58.798 56.0879 57.6262V52.2355H54.5352V50.2336H56.0879V47.6457H58.9297ZM66.2402 61.0051C64.7168 61.0051 63.4993 60.5168 62.5879 59.5402C61.6764 58.5637 61.2207 57.3234 61.2207 55.8195V55.4289C61.2207 53.8599 61.6504 52.5676 62.5098 51.5519C63.3757 50.5363 64.5345 50.0318 65.9863 50.0383C67.4121 50.0383 68.5189 50.468 69.3066 51.3273C70.0944 52.1867 70.4883 53.3488 70.4883 54.8137V56.3664H64.1797L64.1602 56.425C64.2122 57.1216 64.4434 57.6945 64.8535 58.1437C65.2702 58.593 65.8333 58.8176 66.543 58.8176C67.1745 58.8176 67.6986 58.7557 68.1152 58.632C68.5319 58.5018 68.9876 58.3 69.4824 58.0266L70.2539 59.7844C69.8177 60.1294 69.2513 60.4191 68.5547 60.6535C67.8646 60.8879 67.0931 61.0051 66.2402 61.0051ZM65.9863 52.2355C65.459 52.2355 65.0423 52.4374 64.7363 52.841C64.4303 53.2446 64.2415 53.7752 64.1699 54.4328L64.1992 54.4816H67.6953V54.2277C67.6953 53.6223 67.5521 53.1405 67.2656 52.7824C66.9857 52.4178 66.5592 52.2355 65.9863 52.2355ZM74.748 55.4191C74.748 53.8436 75.1875 52.5545 76.0664 51.5519C76.9518 50.5428 78.1725 50.0383 79.7285 50.0383C81.291 50.0383 82.5117 50.5396 83.3906 51.5422C84.276 52.5448 84.7188 53.8371 84.7188 55.4191V55.6242C84.7188 57.2127 84.276 58.5083 83.3906 59.5109C82.5117 60.507 81.2975 61.0051 79.748 61.0051C78.179 61.0051 76.9518 60.507 76.0664 59.5109C75.1875 58.5083 74.748 57.2127 74.748 55.6242V55.4191ZM77.5996 55.6242C77.5996 56.5877 77.7689 57.3625 78.1074 57.9484C78.446 58.5279 78.9928 58.8176 79.748 58.8176C80.4837 58.8176 81.0208 58.5246 81.3594 57.9387C81.7044 57.3527 81.877 56.5812 81.877 55.6242V55.4191C81.877 54.4816 81.7044 53.7167 81.3594 53.1242C81.0143 52.5318 80.4707 52.2355 79.7285 52.2355C78.9863 52.2355 78.446 52.5318 78.1074 53.1242C77.7689 53.7167 77.5996 54.4816 77.5996 55.4191V55.6242ZM94.5156 56.7961H92.6406L91.9375 60.8H90.1406L90.8438 56.7961H88.627V55.1457H91.127L91.625 52.3137H89.3691V50.6437H91.918L92.6406 46.5812H94.4277L93.7148 50.6437H95.5898L96.3027 46.5812H98.0996L97.377 50.6437H99.5254V52.3137H97.084L96.5859 55.1457H98.793V56.7961H96.3027L95.5996 60.8H93.8125L94.5156 56.7961ZM92.9238 55.1457H94.7988L95.2969 52.3137H93.4219L92.9238 55.1457ZM99.4824 48.3V46.5812H105.371V48.3L103.848 48.593V58.798L105.371 59.091V60.8H99.4824V59.091L101.006 58.798V48.593L99.4824 48.3ZM112.408 59.5109C112.076 59.9992 111.682 60.3703 111.227 60.6242C110.777 60.8781 110.263 61.0051 109.684 61.0051C108.382 61.0051 107.369 60.5298 106.646 59.5793C105.93 58.6288 105.572 57.3723 105.572 55.8098V55.6047C105.572 53.938 105.934 52.5936 106.656 51.5715C107.379 50.5493 108.395 50.0383 109.703 50.0383C110.23 50.0383 110.706 50.1555 111.129 50.3898C111.552 50.6177 111.923 50.9432 112.242 51.3664V47.5773L110.719 47.2844V45.5656H112.242H115.094V58.798L116.461 59.091V60.8H112.623L112.408 59.5109ZM108.424 55.8098C108.424 56.7342 108.577 57.4634 108.883 57.9973C109.195 58.5246 109.703 58.7883 110.406 58.7883C110.823 58.7883 111.184 58.7036 111.49 58.5344C111.796 58.3651 112.047 58.121 112.242 57.8019V53.3195C112.047 52.981 111.796 52.7206 111.49 52.5383C111.191 52.3495 110.836 52.2551 110.426 52.2551C109.729 52.2551 109.221 52.5643 108.902 53.1828C108.583 53.8013 108.424 54.6086 108.424 55.6047V55.8098ZM127.102 51.1223H124.963L124.592 49.1691C124.344 49.0129 123.983 48.8762 123.508 48.759C123.033 48.6418 122.528 48.5832 121.994 48.5832C121.213 48.5832 120.607 48.7492 120.178 49.0812C119.755 49.4068 119.543 49.8299 119.543 50.3508C119.543 50.8325 119.764 51.2297 120.207 51.5422C120.656 51.8482 121.428 52.1737 122.521 52.5187C124.09 52.9549 125.279 53.5311 126.086 54.2473C126.9 54.9634 127.307 55.9042 127.307 57.0695C127.307 58.287 126.825 59.2473 125.861 59.9504C124.898 60.6535 123.628 61.0051 122.053 61.0051C120.926 61.0051 119.908 60.826 118.996 60.468C118.091 60.1099 117.336 59.6151 116.73 58.9836V56.0148H118.938L119.24 58.0363C119.527 58.2707 119.914 58.466 120.402 58.6223C120.897 58.772 121.447 58.8469 122.053 58.8469C122.834 58.8469 123.426 58.6874 123.83 58.3683C124.24 58.0493 124.445 57.6229 124.445 57.0891C124.445 56.5422 124.25 56.1027 123.859 55.7707C123.475 55.4387 122.798 55.1262 121.828 54.8332C120.142 54.3449 118.866 53.7655 118 53.0949C117.134 52.4243 116.701 51.5064 116.701 50.341C116.701 49.1887 117.189 48.2479 118.166 47.5187C119.143 46.7831 120.37 46.4055 121.848 46.3859C122.941 46.3859 123.938 46.5519 124.836 46.884C125.734 47.216 126.49 47.6587 127.102 48.2121V51.1223ZM134.227 60.8C134.148 60.6242 134.08 60.4452 134.021 60.2629C133.963 60.0741 133.917 59.8853 133.885 59.6965C133.546 60.0871 133.133 60.4029 132.645 60.6437C132.163 60.8846 131.609 61.0051 130.984 61.0051C129.949 61.0051 129.126 60.7251 128.514 60.1652C127.908 59.5988 127.605 58.8306 127.605 57.8605C127.605 56.871 128.003 56.106 128.797 55.5656C129.591 55.0252 130.757 54.7551 132.293 54.7551H133.748V53.7199C133.748 53.2121 133.602 52.8182 133.309 52.5383C133.016 52.2583 132.583 52.1183 132.01 52.1183C131.684 52.1183 131.395 52.1574 131.141 52.2355C130.887 52.3071 130.682 52.395 130.525 52.4992L130.34 53.632H128.191L128.201 51.2883C128.722 50.9367 129.318 50.6405 129.988 50.3996C130.665 50.1587 131.401 50.0383 132.195 50.0383C133.504 50.0383 134.565 50.3605 135.379 51.0051C136.199 51.6431 136.609 52.5545 136.609 53.7394V58.1047C136.609 58.2674 136.609 58.4204 136.609 58.5637C136.616 58.7069 136.629 58.8436 136.648 58.9738L137.518 59.091V60.8H134.227ZM131.756 58.8957C132.186 58.8957 132.576 58.8045 132.928 58.6223C133.279 58.4335 133.553 58.1991 133.748 57.9191V56.3078H132.293C131.688 56.3078 131.229 56.451 130.916 56.7375C130.604 57.0174 130.447 57.356 130.447 57.7531C130.447 58.1112 130.561 58.3911 130.789 58.593C131.023 58.7948 131.346 58.8957 131.756 58.8957ZM137.191 47.2844V45.5656H141.566V58.798L142.943 59.091V60.8H137.338V59.091L138.715 58.798V47.5773L137.191 47.2844ZM149.609 60.8C149.531 60.6242 149.463 60.4452 149.404 60.2629C149.346 60.0741 149.3 59.8853 149.268 59.6965C148.929 60.0871 148.516 60.4029 148.027 60.6437C147.546 60.8846 146.992 61.0051 146.367 61.0051C145.332 61.0051 144.508 60.7251 143.896 60.1652C143.291 59.5988 142.988 58.8306 142.988 57.8605C142.988 56.871 143.385 56.106 144.18 55.5656C144.974 55.0252 146.139 54.7551 147.676 54.7551H149.131V53.7199C149.131 53.2121 148.984 52.8182 148.691 52.5383C148.398 52.2583 147.965 52.1183 147.393 52.1183C147.067 52.1183 146.777 52.1574 146.523 52.2355C146.27 52.3071 146.064 52.395 145.908 52.4992L145.723 53.632H143.574L143.584 51.2883C144.105 50.9367 144.701 50.6405 145.371 50.3996C146.048 50.1587 146.784 50.0383 147.578 50.0383C148.887 50.0383 149.948 50.3605 150.762 51.0051C151.582 51.6431 151.992 52.5545 151.992 53.7394V58.1047C151.992 58.2674 151.992 58.4204 151.992 58.5637C151.999 58.7069 152.012 58.8436 152.031 58.9738L152.9 59.091V60.8H149.609ZM147.139 58.8957C147.568 58.8957 147.959 58.8045 148.311 58.6223C148.662 58.4335 148.936 58.1991 149.131 57.9191V56.3078H147.676C147.07 56.3078 146.611 56.451 146.299 56.7375C145.986 57.0174 145.83 57.356 145.83 57.7531C145.83 58.1112 145.944 58.3911 146.172 58.593C146.406 58.7948 146.729 58.8957 147.139 58.8957ZM163.508 60.8C163.43 60.6242 163.361 60.4452 163.303 60.2629C163.244 60.0741 163.199 59.8853 163.166 59.6965C162.827 60.0871 162.414 60.4029 161.926 60.6437C161.444 60.8846 160.891 61.0051 160.266 61.0051C159.23 61.0051 158.407 60.7251 157.795 60.1652C157.189 59.5988 156.887 58.8306 156.887 57.8605C156.887 56.871 157.284 56.106 158.078 55.5656C158.872 55.0252 160.038 54.7551 161.574 54.7551H163.029V53.7199C163.029 53.2121 162.883 52.8182 162.59 52.5383C162.297 52.2583 161.864 52.1183 161.291 52.1183C160.965 52.1183 160.676 52.1574 160.422 52.2355C160.168 52.3071 159.963 52.395 159.807 52.4992L159.621 53.632H157.473L157.482 51.2883C158.003 50.9367 158.599 50.6405 159.27 50.3996C159.947 50.1587 160.682 50.0383 161.477 50.0383C162.785 50.0383 163.846 50.3605 164.66 51.0051C165.48 51.6431 165.891 52.5545 165.891 53.7394V58.1047C165.891 58.2674 165.891 58.4204 165.891 58.5637C165.897 58.7069 165.91 58.8436 165.93 58.9738L166.799 59.091V60.8H163.508ZM161.037 58.8957C161.467 58.8957 161.857 58.8045 162.209 58.6223C162.561 58.4335 162.834 58.1991 163.029 57.9191V56.3078H161.574C160.969 56.3078 160.51 56.451 160.197 56.7375C159.885 57.0174 159.729 57.356 159.729 57.7531C159.729 58.1112 159.842 58.3911 160.07 58.593C160.305 58.7948 160.627 58.8957 161.037 58.8957ZM166.814 55.6047C166.814 53.938 167.176 52.5936 167.898 51.5715C168.621 50.5493 169.637 50.0383 170.945 50.0383C171.518 50.0383 172.026 50.1652 172.469 50.4191C172.911 50.673 173.292 51.0344 173.611 51.5031L173.836 50.2336H176.307V62.8508L177.684 63.1437V64.8625H172.078V63.1437L173.455 62.8508V59.8234C173.143 60.2141 172.775 60.5103 172.352 60.7121C171.935 60.9074 171.46 61.0051 170.926 61.0051C169.624 61.0051 168.611 60.5298 167.889 59.5793C167.173 58.6288 166.814 57.3723 166.814 55.8098V55.6047ZM169.666 55.8098C169.666 56.7407 169.819 57.4764 170.125 58.0168C170.438 58.5506 170.945 58.8176 171.648 58.8176C172.065 58.8176 172.423 58.7427 172.723 58.593C173.022 58.4367 173.266 58.2088 173.455 57.9094V53.2121C173.266 52.8996 173.022 52.6587 172.723 52.4894C172.43 52.3202 172.078 52.2355 171.668 52.2355C170.971 52.2355 170.464 52.548 170.145 53.173C169.826 53.7915 169.666 54.6021 169.666 55.6047V55.8098ZM184.438 59.4621C184.099 59.9569 183.679 60.3377 183.178 60.6047C182.683 60.8716 182.117 61.0051 181.479 61.0051C180.365 61.0051 179.493 60.6502 178.861 59.9406C178.23 59.2245 177.914 58.1144 177.914 56.6105V52.2453L176.752 51.9523V50.2336H177.914H180.766V56.6301C180.766 57.3983 180.893 57.9517 181.146 58.2902C181.407 58.6223 181.791 58.7883 182.299 58.7883C182.748 58.7883 183.135 58.7167 183.461 58.5734C183.793 58.4237 184.063 58.2121 184.271 57.9387V52.2453L183.021 51.9523V50.2336H184.271H187.123V58.798L188.402 59.091V60.8H184.623L184.438 59.4621ZM188.438 59.091L189.814 58.798V52.2453L188.291 51.9523V50.2336H192.666V58.798L194.033 59.091V60.8H188.438V59.091ZM192.666 47.7043H189.814V45.5656H192.666V47.7043Z" fill="#C9C9C9"/>
</g>
<defs>
<filter id="filter0_d" x="0" y="6.56055" width="408" height="74.4395" filterUnits="userSpaceOnUse" color-interpolation-filters="sRGB">
<feFlood flood-opacity="0" result="BackgroundImageFix"/>
<feColorMatrix in="SourceAlpha" type="matrix" values="0 0 0 0 0 0 0 0 0 0 0 0 0 0 0 0 0 0 127 0"/>
<feOffset dy="4"/>
<feGaussianBlur stdDeviation="2"/>
<feColorMatrix type="matrix" values="0 0 0 0 0 0 0 0 0 0 0 0 0 0 0 0 0 0 0.25 0"/>
<feBlend mode="normal" in2="BackgroundImageFix" result="effect1_dropShadow"/>
<feBlend mode="normal" in="SourceGraphic" in2="effect1_dropShadow" result="shape"/>
</filter>
</defs>
</svg>
