<svg width="250" height="50" viewBox="0 0 250 50" fill="none" xmlns="http://www.w3.org/2000/svg">
<rect x="0.5" y="0.5" width="249" height="49" rx="14.5" fill="#B80E0F" stroke="black"/>
<path d="M88.1543 17.125L86.2573 17.4668L90.6665 32.3862L90.9741 33.7534H91.0767L91.3672 32.4204L95.7935 17.4668L93.9136 17.125V14.1172H103.005V17.125L100.92 17.3984L93.5889 39H88.4619L81.1133 17.3984L79.0625 17.125V14.1172H88.1543V17.125ZM102.11 29.5835C102.11 26.8263 102.879 24.5705 104.417 22.8159C105.966 21.05 108.103 20.167 110.826 20.167C113.56 20.167 115.696 21.0443 117.234 22.7988C118.784 24.5534 119.559 26.8149 119.559 29.5835V29.9424C119.559 32.7223 118.784 34.9896 117.234 36.7441C115.696 38.4873 113.571 39.3589 110.86 39.3589C108.114 39.3589 105.966 38.4873 104.417 36.7441C102.879 34.9896 102.11 32.7223 102.11 29.9424V29.5835ZM107.1 29.9424C107.1 31.6286 107.396 32.9844 107.989 34.0098C108.581 35.0238 109.538 35.5308 110.86 35.5308C112.147 35.5308 113.087 35.0181 113.68 33.9927C114.284 32.9673 114.585 31.6172 114.585 29.9424V29.5835C114.585 27.9429 114.284 26.6042 113.68 25.5674C113.076 24.5306 112.125 24.0122 110.826 24.0122C109.527 24.0122 108.581 24.5306 107.989 25.5674C107.396 26.6042 107.1 27.9429 107.1 29.5835V29.9424ZM119.107 15.3477V12.3398H126.764V35.4966L129.173 36.0093V39H119.364V36.0093L121.773 35.4966V15.8604L119.107 15.3477ZM136.43 15.98V20.5088H139.677V24.0122H136.43V33.4287C136.43 34.1465 136.578 34.6592 136.874 34.9668C137.17 35.2744 137.569 35.4282 138.07 35.4282C138.412 35.4282 138.708 35.4168 138.959 35.394C139.221 35.3599 139.512 35.3086 139.831 35.2402L140.258 38.8462C139.7 39.0171 139.147 39.1424 138.6 39.2222C138.053 39.3133 137.461 39.3589 136.823 39.3589C135.102 39.3589 133.775 38.8861 132.841 37.9404C131.918 36.9948 131.457 35.4966 131.457 33.4458V24.0122H128.739V20.5088H131.457V15.98H136.43ZM152.146 39C152.009 38.6924 151.889 38.3791 151.787 38.0601C151.684 37.7297 151.604 37.3993 151.547 37.0688C150.955 37.7524 150.231 38.305 149.377 38.7266C148.534 39.1481 147.565 39.3589 146.472 39.3589C144.66 39.3589 143.219 38.869 142.148 37.8892C141.088 36.8979 140.559 35.5535 140.559 33.856C140.559 32.1242 141.254 30.7855 142.644 29.8398C144.034 28.8942 146.073 28.4214 148.762 28.4214H151.308V26.6099C151.308 25.7212 151.052 25.0319 150.539 24.542C150.026 24.0521 149.269 23.8071 148.266 23.8071C147.696 23.8071 147.189 23.8755 146.745 24.0122C146.301 24.1375 145.942 24.2913 145.668 24.4736L145.344 26.4561H141.584L141.601 22.3545C142.513 21.7393 143.555 21.2209 144.729 20.7993C145.913 20.3778 147.201 20.167 148.591 20.167C150.881 20.167 152.738 20.731 154.162 21.8589C155.598 22.9754 156.315 24.5705 156.315 26.644V34.2832C156.315 34.568 156.315 34.8358 156.315 35.0864C156.327 35.3371 156.35 35.5763 156.384 35.8042L157.905 36.0093V39H152.146ZM147.822 35.6675C148.574 35.6675 149.257 35.508 149.873 35.189C150.488 34.8586 150.966 34.4484 151.308 33.9585V31.1387H148.762C147.702 31.1387 146.899 31.3893 146.352 31.8906C145.805 32.3805 145.532 32.973 145.532 33.668C145.532 34.2946 145.731 34.7845 146.13 35.1377C146.54 35.4909 147.104 35.6675 147.822 35.6675ZM158.24 36.0093L160.632 35.4966V24.0293L157.983 23.5166V20.5088H165.281L165.503 23.209C165.936 22.252 166.494 21.5057 167.178 20.9702C167.861 20.4347 168.653 20.167 169.553 20.167C169.815 20.167 170.089 20.1898 170.374 20.2354C170.67 20.2695 170.915 20.3151 171.108 20.3721L170.579 24.918L168.528 24.8667C167.799 24.8667 167.195 25.0091 166.716 25.2939C166.238 25.5788 165.873 25.9832 165.623 26.5073V35.4966L168.015 36.0093V39H158.24V36.0093Z" fill="white"/>
</svg>
