<svg width="137" height="137" viewBox="0 0 137 137" fill="none" xmlns="http://www.w3.org/2000/svg">
<g clip-path="url(#clip0)">
<path d="M129.508 44.788C130.616 44.788 131.515 43.8895 131.515 42.7812V35.5124C131.515 31.4193 129.131 27.7444 125.533 26.0396L73.0167 1.02482C70.1456 -0.341703 66.8536 -0.341435 63.9857 1.02509L25.6953 19.2635C24.6945 19.74 24.2699 20.9377 24.7464 21.9382C25.223 22.9387 26.4204 23.3636 27.4211 22.887L65.7118 4.64836C67.4837 3.80415 69.5173 3.80415 71.2914 4.64836L123.811 29.6645C124.135 29.8181 124.443 30.0011 124.735 30.2053L68.5 56.9915L12.2669 30.2061C12.5601 30.0014 12.8692 29.8176 13.1956 29.6629L19.6937 26.5678C20.6942 26.0913 21.1191 24.8936 20.6423 23.8931C20.1655 22.8924 18.9686 22.468 17.9673 22.9445L11.4729 26.0378C7.84378 27.7577 5.48535 31.4436 5.48535 35.5124V101.493C5.48535 105.517 7.83362 109.235 11.4679 110.966L46.5506 127.675C47.551 128.152 48.7487 127.727 49.2253 126.726C49.7018 125.726 49.2772 124.528 48.2764 124.052L13.194 107.343C10.9493 106.273 9.49902 103.977 9.49902 101.493V35.5124C9.49902 34.8181 9.609 34.136 9.82253 33.4877L66.4932 60.4812V132.667C66.2259 132.58 65.9644 132.476 65.7116 132.356L56.0062 127.733C55.0055 127.256 53.8078 127.681 53.3315 128.682C52.855 129.683 53.2796 130.88 54.2804 131.357L63.9838 135.978C65.3835 136.647 66.9454 137.001 68.5003 137.001C70.0573 137.001 71.62 136.647 73.0175 135.979L125.534 110.968C125.545 110.962 125.563 110.954 125.575 110.948L125.643 110.915C129.21 109.164 131.515 105.466 131.515 101.495V51.2936C131.515 50.1853 130.617 49.2868 129.508 49.2868C128.4 49.2868 127.502 50.1853 127.502 51.2936V101.495C127.502 103.947 126.078 106.23 123.851 107.323L71.2895 132.356C71.0366 132.477 70.775 132.581 70.5074 132.668V60.4809L127.178 33.4874C127.392 34.1357 127.502 34.8178 127.502 35.5122V42.7809C127.501 43.8895 128.4 44.788 129.508 44.788V44.788Z" fill="#E5E5E5"/>
<path d="M96.1499 80.6665C95.3777 86.3849 98.751 90.545 102.817 90.545C106.454 90.545 109.647 87.2093 110.273 82.5741C110.945 77.6001 108.37 73.2848 104.41 72.75C100.448 72.2156 96.8218 75.6928 96.1499 80.6665V80.6665ZM106.295 82.0371C105.944 84.6435 104.196 86.7365 102.55 86.5134C100.907 86.2916 99.7753 83.8103 100.127 81.2038C100.48 78.5971 102.231 76.5046 103.872 76.7275C105.515 76.9496 106.648 79.4306 106.295 82.0371Z" fill="#E5E5E5"/>
<path d="M58.5742 69.999C58.3007 64.9872 54.9744 61.2302 50.9974 61.4485C47.0223 61.6655 44.1228 65.7613 44.3965 70.7728C44.6625 75.6465 47.817 79.3326 51.6463 79.3324C55.3236 79.3324 58.8808 75.6154 58.5742 69.999V69.999ZM51.7541 75.3157C50.115 75.4051 48.5469 73.1802 48.4038 70.5539C48.2604 67.9276 49.5747 65.5454 51.216 65.4558C52.8563 65.3704 54.423 67.5913 54.5664 70.2176C54.6804 72.3058 53.6973 75.2095 51.7541 75.3157V75.3157Z" fill="#E5E5E5"/>
<path d="M15.256 95.9514C15.5399 101.156 19.0021 104.511 22.5223 104.51C26.3035 104.51 29.733 100.649 29.4341 95.1776C29.1393 89.7706 25.4507 86.4302 21.8571 86.6271C18.2448 86.824 14.9624 90.5806 15.256 95.9514ZM22.0757 90.6346C24.0288 90.5311 25.3121 93.3056 25.4264 95.3962C25.5379 97.4413 24.5776 100.387 22.6138 100.494C20.6608 100.599 19.3777 97.8234 19.2635 95.7328C19.1498 93.6446 20.1329 90.7406 22.0757 90.6346V90.6346Z" fill="#E5E5E5"/>
<path d="M44.2334 36.1704C49.2451 35.8969 53.0011 32.5688 52.7844 28.5936C52.5845 24.9305 48.7752 21.7038 43.4595 21.9928C38.4478 22.2662 34.6915 25.5944 34.9085 29.5695C35.1429 33.8574 39.6337 36.423 44.2334 36.1704ZM43.6782 26.0003C45.7059 25.8906 48.6685 26.837 48.7766 28.8123C48.866 30.4539 46.641 32.0194 44.0148 32.1629C41.3877 32.3079 39.0062 30.9922 38.9163 29.3506C38.8267 27.7093 41.0519 26.1437 43.6782 26.0003Z" fill="#E5E5E5"/>
<path d="M67.5073 10.1107C62.4955 10.3842 58.7393 13.7123 58.9563 17.6872C59.1489 21.2221 62.819 24.5853 68.2811 24.288C73.2928 24.0146 77.0488 20.6864 76.8321 16.7116C76.6148 12.7367 72.5193 9.83669 67.5073 10.1107V10.1107ZM68.0625 20.2808C66.012 20.3918 63.0714 19.4296 62.9641 17.4688C62.8747 15.8275 65.0996 14.2619 67.7259 14.1185C69.7878 14.0061 72.7173 14.9731 72.8243 16.9307C72.9137 18.5718 70.6888 20.1374 68.0625 20.2808V20.2808Z" fill="#E5E5E5"/>
<path d="M93.4605 37.0191C98.8677 36.7243 102.208 33.0357 102.011 29.4424C101.811 25.764 97.9817 22.5523 92.6866 22.8415C87.6749 23.115 83.9189 26.4431 84.1356 30.4183C84.3358 34.0779 88.0656 37.3153 93.4605 37.0191ZM92.9052 26.849C94.933 26.7393 97.8956 27.6857 98.0037 29.661C98.1102 31.6098 95.3367 32.8968 93.2419 33.0114C90.6161 33.1566 88.2331 31.8407 88.1434 30.1994C88.054 28.558 90.2792 26.9924 92.9052 26.849Z" fill="#E5E5E5"/>
<path d="M69.2048 33.8749C64.1931 34.1484 60.4371 37.4765 60.6538 41.4516C60.8615 45.2529 64.6156 48.0705 69.3266 48.0705C75.042 48.0705 78.7354 44.2446 78.5296 40.4758C78.329 36.7971 74.5007 33.5862 69.2048 33.8749V33.8749ZM69.7598 44.045C67.1319 44.189 64.7512 42.8744 64.6613 41.233C64.572 39.5914 66.7969 38.0258 69.4232 37.8824C71.449 37.773 74.4135 38.7175 74.5216 40.6947C74.6283 42.6434 71.8549 43.9305 69.7598 44.045Z" fill="#E5E5E5"/>
</g>
<defs>
<clipPath id="clip0">
<rect width="137" height="137" fill="white"/>
</clipPath>
</defs>
</svg>
