<svg width="10" height="10" viewBox="0 0 10 10" fill="none" xmlns="http://www.w3.org/2000/svg">
<path d="M8.50719 1.14316C7.62348 0.419407 6.50612 0.00956975 5.33973 0.00956975C2.58535 0.00956975 0.344512 2.25041 0.344512 5.00478C0.344512 7.75916 2.58535 10 5.33973 10C6.69314 10 7.96032 9.46752 8.90777 8.50067C9.1297 8.27418 9.12599 7.91066 8.8995 7.68873C8.67301 7.46679 8.30953 7.47051 8.08756 7.697C7.35791 8.44161 6.38202 8.85167 5.33973 8.85167C3.21854 8.85167 1.49284 7.12597 1.49284 5.00478C1.49284 2.8836 3.21854 1.16429 5.33973 1.16429C6.17276 1.16429 6.97322 1.42901 7.628 1.92662H7.16748C6.85039 1.92662 6.59332 2.18369 6.59332 2.50078C6.59332 2.81788 6.85039 3.07495 7.16748 3.07495H9.08113C9.0812 3.07495 9.08128 3.07495 9.08128 3.07495C9.39845 3.07495 9.65552 2.80513 9.65552 2.48804V0.574163C9.65552 0.257072 9.39845 3.67872e-07 9.08135 3.67872e-07C8.76426 3.67872e-07 8.50719 0.257072 8.50719 0.574163V1.14316Z" fill="#C4C4C4"/>
</svg>
